<svg width="250" height="44" viewBox="0 0 250 44" fill="none" xmlns="http://www.w3.org/2000/svg">
<g id="Frame 1000002018">
<g id="Group">
<g id="Group_2">
<path id="Vector" d="M225.68 43.7973V11.3045H233.814V15.3933H234.031C234.923 13.0661 237.098 11 240.686 11C245.428 11 249.951 14.6321 249.951 23.1359C249.951 31.2699 245.71 35.25 240.599 35.2282C237.228 35.25 234.988 33.4013 234.031 31.0525H233.901V43.7973H225.68ZM233.727 23.0924C233.705 26.6592 235.184 28.8993 237.642 28.9211C240.077 28.8993 241.491 26.7027 241.513 23.0924C241.491 19.5256 240.099 17.3289 237.642 17.3507C235.162 17.3289 233.705 19.5038 233.727 23.0924Z" fill="white"/>
<path id="Vector_2" d="M214.76 24.6306V11.3203H222.981V34.9396H215.195V30.4593H214.934C213.89 33.4607 211.215 35.2441 207.67 35.2441C202.755 35.2441 199.492 31.5902 199.492 26.3705V11.3203H207.713V24.6741C207.713 27.0882 208.996 28.5454 211.193 28.5454C213.324 28.5454 214.782 27.0882 214.76 24.6306Z" fill="white"/>
<path id="Vector_3" d="M185.519 35.3587C177.907 35.3587 173.362 30.4435 173.34 23.1794C173.362 15.9152 177.907 11 185.519 11C193.131 11 197.677 15.9152 197.655 23.1794C197.677 30.4435 193.131 35.3587 185.519 35.3587ZM181.735 23.1359C181.757 26.8767 183.149 29.2473 185.563 29.269C187.868 29.2473 189.282 26.8767 189.26 23.1359C189.282 19.3516 187.868 16.9809 185.563 17.0027C183.149 16.9809 181.757 19.3516 181.735 23.1359Z" fill="white"/>
<path id="Vector_4" d="M157.312 34.9261V11.3069H165.273V15.7436H165.534C166.382 12.4813 168.383 10.9806 170.927 11.0024C171.645 10.9806 172.406 11.1111 173.059 11.2634V18.3535C172.254 18.0708 170.862 17.9185 169.97 17.9185C167.404 17.9185 165.512 19.7454 165.534 22.4858V34.9261H157.312Z" fill="white"/>
<path id="Vector_5" d="M145.413 13.9235C144.832 11.6331 142.889 10.3117 140.051 10.3117C135.538 10.3117 132.902 13.6372 132.902 19.3412C132.902 25.0672 135.36 28.4368 140.007 28.4588C144.028 28.4368 146.128 26.5648 146.173 23.6137H140.185V17.6234H154.394V21.984C154.394 30.6611 148.362 35.7705 139.917 35.7705C130.534 35.7705 124.167 29.5379 124.145 19.4293C124.167 8.94626 131.16 3 139.873 3C147.469 3 153.322 7.53678 154.037 13.9235H145.413Z" fill="white"/>
<g id="Group_3">
<path id="Vector_6" d="M71.2109 10.1283V3.42969H98.3535V10.1283H88.871V34.922H80.6934V10.1283H71.2109Z" fill="white"/>
<path id="Vector_7" d="M100.988 3.42969L106.295 12.8252H106.556L111.949 3.42969H121.214L111.775 19.1759L121.562 34.922H112.08L106.556 25.396H106.295L100.814 34.922H91.375L101.075 19.1759L91.6795 3.42969H100.988Z" fill="white"/>
</g>
</g>
</g>
<g id="Group_4">
<g id="Group_5">
<path id="Vector_8" d="M55.72 4.4531C54.9586 3.29305 54.0374 2.34817 52.9658 1.60443C51.1045 0.537927 48.7591 0 45.9297 0C42.6067 0 39.9793 0.65019 38.0475 1.95525C36.1158 3.26031 34.7433 5.21088 33.9208 7.82099C33.6905 8.55538 33.4931 9.35993 33.3286 10.2159C33.2252 10.7819 33.1265 11.3526 33.0466 11.9747C33.0372 12.0309 33.0231 12.1572 33.0231 12.1618L33.009 12.2647C33.009 12.2647 32.9949 12.3068 32.9902 12.3255C32.6659 13.9721 31.2042 15.2163 29.4463 15.2257C27.6885 15.2163 26.2314 13.9721 25.9024 12.3255C25.9024 12.3068 25.8883 12.2835 25.8836 12.2647L25.8695 12.1618C25.8695 12.1618 25.8554 12.0355 25.846 11.9747C25.7661 11.3573 25.6674 10.7819 25.564 10.2159C25.3995 9.35993 25.2021 8.55538 24.9718 7.82099C24.1493 5.21555 22.7721 3.26031 20.8451 1.95525C18.918 0.65019 16.2953 0 12.9677 0C10.1382 0 7.79281 0.53325 5.92686 1.60443C4.85523 2.35285 3.93401 3.29305 3.17259 4.4531C1.17974 7.49824 0.131604 12.0823 0 18.1773C0.131604 24.2675 1.17974 28.8563 3.17259 31.9014C3.93401 33.0615 4.85523 34.0064 5.92686 34.7501C7.78811 35.8166 10.1382 36.3545 12.9677 36.3545C16.2906 36.3545 18.918 35.7043 20.8498 34.3993C22.7815 33.0942 24.154 31.1436 24.9765 28.5335C25.2068 27.7991 25.4042 26.9946 25.5687 26.1386C25.6721 25.5726 25.7708 25.0019 25.8507 24.3845C25.8601 24.3283 25.8742 24.202 25.8742 24.1974L25.8883 24.0945C25.8883 24.0945 25.9024 24.0524 25.9071 24.0337C26.2314 22.3871 27.6932 21.1429 29.451 21.1335C31.2089 21.1429 32.6659 22.3871 32.9949 24.0337C32.9996 24.0524 33.009 24.0711 33.0137 24.0945L33.0278 24.1974C33.0278 24.1974 33.0419 24.3237 33.0513 24.3845C33.1312 25.0019 33.2299 25.5726 33.3333 26.1386C33.4978 26.9946 33.6952 27.7991 33.9255 28.5335C34.7481 31.139 36.1252 33.0942 38.0522 34.3993C39.984 35.7043 42.6114 36.3545 45.9343 36.3545C48.7638 36.3545 51.1092 35.8166 52.9751 34.7501C54.0468 34.0017 54.968 33.0615 55.7294 31.9014C57.7223 28.8563 58.7704 24.2675 58.902 18.1773C58.7704 12.087 57.7223 7.49824 55.7294 4.4531H55.72Z" fill="#00FF00"/>
</g>
</g>
</g>
</svg>
