<svg width="114" height="24" viewBox="0 0 114 24" fill="none" xmlns="http://www.w3.org/2000/svg">
<g id="Frame">
<path id="Vector" d="M9.19894 23.607C7.86278 23.607 6.708 23.2425 5.73158 22.5164C4.75818 21.7904 4.26845 20.7788 4.26845 19.4786C4.26845 18.5095 4.44379 17.7167 4.79445 17.1C5.14512 16.4833 5.68321 15.7694 6.4057 14.9553C7.04053 14.2505 7.51212 13.646 7.81744 13.1386C8.12276 12.6313 8.27693 12.0146 8.27693 11.2886V10.0674C8.27693 9.51754 8.2074 9.07098 8.06532 8.73074C7.92324 8.3905 7.60583 8.11406 7.11308 7.90445C6.62034 7.69484 5.8918 7.5794 4.92746 7.55814H4.56471C3.09856 7.55814 1.96796 7.22701 1.18199 6.5678C0.392988 5.91163 0 5.09749 0 4.12842C0 3.44491 0.211609 2.7857 0.640873 2.14775C1.06711 1.5098 1.68683 0.993373 2.49699 0.595416C3.30715 0.197459 4.27148 0 5.38696 0H13.4039C14.4348 0 15.3265 0.203535 16.0823 0.610605C16.838 1.01768 17.4124 1.55233 17.8084 2.21155C18.2014 2.87076 18.4009 3.55427 18.4009 4.25905C18.4009 5.18255 18.0684 5.96631 17.4003 6.60426C16.7322 7.2422 15.7739 7.56118 14.5254 7.56118H14.0992C13.0049 7.58244 12.1645 7.69788 11.5841 7.90749C11.0037 8.1171 10.6137 8.39658 10.4172 8.74897C10.2207 9.10136 10.121 9.54185 10.121 10.0704V11.2916C10.121 12.0177 10.2751 12.6344 10.5804 13.1417C10.8858 13.649 11.3574 14.2535 11.9922 14.9583C12.7147 15.7724 13.2528 16.4894 13.6034 17.103C13.9541 17.7197 14.1294 18.5126 14.1294 19.4816C14.1294 20.7818 13.6427 21.7934 12.6663 22.5195C11.6929 23.2455 10.5351 23.6101 9.19894 23.6101V23.607Z" fill="#00FF00"/>
<path id="Vector_2" d="M25.4734 23.604C24.1796 23.604 23.0611 23.2516 22.1179 22.5499C21.1747 21.8481 20.7031 20.8669 20.7031 19.6123C20.7031 18.6341 20.8936 17.7957 21.2745 17.1061C21.6554 16.4134 22.2176 15.6418 22.9583 14.7912C23.5085 14.1533 23.9166 13.6156 24.1826 13.1781C24.4486 12.7407 24.5816 12.2577 24.5816 11.7261C24.5816 11.1306 24.4486 10.6081 24.1826 10.1616C23.9166 9.715 23.4873 9.14085 22.8948 8.43607C22.1965 7.64927 21.6554 6.90804 21.2745 6.21541C20.8936 5.52279 20.7031 4.68738 20.7031 3.70616C20.7031 2.81304 20.9722 2.08699 21.5133 1.53411C22.0544 0.981221 22.6983 0.586303 23.451 0.352389C24.2037 0.118476 24.9172 0 25.5973 0C26.2775 0 26.9365 0.121513 27.6469 0.367578C28.3573 0.613643 28.9649 1.0116 29.4728 1.56449C29.9807 2.11737 30.2376 2.83126 30.2376 3.70616C30.2376 4.68738 30.0472 5.52279 29.6663 6.21541C29.2854 6.90804 28.7443 7.64927 28.046 8.43607C27.4504 9.13781 27.0212 9.715 26.7582 10.1616C26.4921 10.6081 26.3622 11.1306 26.3622 11.7261C26.3622 12.2577 26.4952 12.7437 26.7582 13.1781C27.0242 13.6156 27.4323 14.1533 27.9825 14.7912C28.7231 15.6418 29.2854 16.4165 29.6663 17.1061C30.0472 17.7987 30.2376 18.6341 30.2376 19.6123C30.2376 20.8699 29.766 21.8481 28.8229 22.5499C27.8797 23.2516 26.7612 23.604 25.4704 23.604H25.4734Z" fill="#00FF00"/>
<path id="Vector_3" d="M40.6014 23.607C39.3287 23.607 38.0862 23.4248 36.877 23.0633C35.6679 22.7018 34.6642 22.158 33.8692 21.4319C33.0741 20.7059 32.6751 19.8219 32.6751 18.7769C32.6751 17.6681 33.0832 16.7628 33.8994 16.058C34.7156 15.3532 35.8885 15.013 37.4182 15.0343C37.7779 15.0343 38.2465 15.0707 38.8178 15.1467C39.3922 15.2226 39.9635 15.3016 40.5379 15.3866C41.2815 15.493 42.0464 15.5932 42.8293 15.6904C43.6153 15.7876 44.3045 15.8332 44.897 15.8332C45.4895 15.8332 45.9974 15.7816 46.4085 15.6722C46.8227 15.5659 47.1522 15.3958 47.394 15.1588C47.6389 14.9249 47.7598 14.6059 47.7598 14.1989C47.7598 13.646 47.527 13.1964 47.0585 12.8561C46.5899 12.5159 45.8795 12.3458 44.9242 12.3458C44.2229 12.3458 43.5458 12.4035 42.8867 12.522C42.2277 12.6404 41.5083 12.7954 40.7223 12.9868C40.2356 13.0931 39.7519 13.1933 39.2743 13.2905C38.7966 13.3877 38.3764 13.4333 38.0167 13.4333C36.8075 13.4333 35.7888 13.1295 34.9605 12.522C34.1322 11.9144 33.5215 11.1519 33.1285 10.2345C32.7356 9.31705 32.5391 8.41177 32.5391 7.51561C32.5391 6.19415 32.8625 4.96079 33.5094 3.8216C34.1564 2.68241 35.1419 1.75891 36.4689 1.05413C37.8051 0.352389 39.4345 0 41.3662 0C42.9986 0 44.3438 0.212649 45.3928 0.640984C46.4448 1.06628 47.1975 1.62221 47.654 2.30572C48.1105 2.98923 48.3372 3.71224 48.3372 4.48081C48.3372 5.37697 48.056 6.1182 47.4938 6.70451C46.9315 7.29081 46.076 7.58548 44.9303 7.58548C44.4647 7.58548 43.975 7.52776 43.4672 7.40928C42.9563 7.29081 42.3426 7.12677 41.6201 6.91412C40.6648 6.63767 39.891 6.43414 39.2954 6.30655C38.6999 6.17896 38.0651 6.11517 37.3849 6.11517C36.5778 6.11517 35.952 6.32781 35.5076 6.75615C35.0633 7.18448 34.8396 7.68269 34.8396 8.25988C34.8396 8.8796 35.0995 9.42337 35.6195 9.8912C36.1394 10.3621 36.8559 10.596 37.7688 10.596C38.2344 10.596 39.0627 10.4988 40.2507 10.3074C40.952 10.2011 41.6987 10.1008 42.4938 10.0036C43.2888 9.90639 44.0264 9.86082 44.7066 9.86082C46.215 9.86082 47.4756 10.3195 48.4944 11.237C49.5131 12.1544 50.021 13.4121 50.021 15.013C50.021 16.9542 49.6008 18.5642 48.7634 19.8432C47.9261 21.1221 46.7955 22.0729 45.3716 22.6896C43.9508 23.3093 42.3577 23.6161 40.5983 23.6161L40.6014 23.607Z" fill="#00FF00"/>
<path id="Vector_4" d="M57.0984 23.6101C55.8046 23.6101 54.6861 23.2577 53.7429 22.5559C52.7997 21.8542 52.3281 20.873 52.3281 19.6184C52.3281 18.6402 52.5518 17.7926 52.9962 17.0787C53.4406 16.3648 54.0875 15.5598 54.937 14.6667C55.593 13.9862 56.0766 13.4212 56.3819 12.9746C56.6873 12.528 56.8414 12.0389 56.8414 11.5043C56.8414 10.9089 56.6873 10.3985 56.3819 9.97018C56.0736 9.54488 55.5718 8.992 54.8705 8.30849C54.0663 7.56421 53.4406 6.8564 52.9962 6.18504C52.5518 5.51367 52.3281 4.69042 52.3281 3.7092C52.3281 2.81608 52.5972 2.09003 53.1383 1.53715C53.6794 0.984259 54.3233 0.58934 55.076 0.355427C55.8287 0.121513 56.5422 0.00303784 57.2223 0.00303784C57.9025 0.00303784 58.5615 0.124551 59.2719 0.370616C59.9823 0.616681 60.5899 1.01464 61.0978 1.56752C61.6057 2.12041 61.8626 2.8343 61.8626 3.7092C61.8626 4.5841 61.7024 5.3071 61.385 5.81746C61.0676 6.32781 60.6202 6.84121 60.0488 7.35157C59.6468 7.71307 59.3505 8.029 59.1601 8.2933C58.9696 8.56063 58.8729 8.87352 58.8729 9.23502C58.8729 9.87297 59.1268 10.3104 59.6377 10.5443C60.1456 10.7782 60.9194 10.9058 61.9594 10.9271H63.5162C64.3022 10.9271 65.0065 10.8056 65.6323 10.5595C66.258 10.3135 66.5694 9.87297 66.5694 9.23502C66.5694 8.89479 66.4636 8.591 66.252 8.32367C66.0404 8.05634 65.732 7.75256 65.33 7.41232C64.6952 6.8807 64.2054 6.35212 63.8669 5.82961C63.5283 5.3071 63.359 4.59929 63.359 3.70616C63.359 2.81304 63.628 2.08699 64.1692 1.53411C64.7103 0.981221 65.3572 0.586303 66.1099 0.352389C66.8626 0.118476 67.5761 0 68.2562 0C68.9364 0 69.5954 0.121513 70.3058 0.367578C71.0162 0.613643 71.6238 1.0116 72.1347 1.56449C72.6426 2.11737 72.8965 2.83126 72.8965 3.70616C72.8965 4.68738 72.6849 5.49545 72.2617 6.13339C71.8385 6.77134 71.2127 7.47612 70.3874 8.24165C69.7103 8.8796 69.2055 9.42945 68.879 9.88816C68.5495 10.3469 68.3862 10.8846 68.3862 11.5013C68.4074 12.0329 68.5767 12.528 68.8941 12.9868C69.2115 13.4455 69.6891 14.0135 70.324 14.6971C71.1492 15.572 71.7871 16.3679 72.2315 17.0939C72.6758 17.8169 72.8995 18.6584 72.8995 19.6184C72.8995 20.876 72.428 21.8542 71.4848 22.5559C70.5416 23.2577 69.4231 23.6101 68.1323 23.6101C66.8415 23.6101 65.72 23.2577 64.7768 22.5559C63.8336 21.8542 63.362 20.873 63.362 19.6184C63.362 18.7465 63.5253 18.0691 63.8548 17.5891C64.1843 17.1091 64.6559 16.6261 65.2695 16.137C65.7139 15.7755 66.0434 15.4565 66.255 15.1801C66.4666 14.9036 66.5724 14.5512 66.5724 14.1259C66.5724 13.5093 66.3608 13.0992 65.9376 12.8956C65.5144 12.6921 64.8131 12.5827 63.8397 12.5615H61.645C60.6897 12.5827 59.9853 12.7012 59.5289 12.9138C59.0724 13.1265 58.8457 13.5305 58.8457 14.129C58.8457 14.5543 58.9454 14.9067 59.148 15.1831C59.3475 15.4596 59.6619 15.7907 60.0851 16.1734C60.6565 16.6625 61.0978 17.1486 61.4031 17.6255C61.7084 18.1055 61.8656 18.7708 61.8656 19.6214C61.8656 20.8791 61.3941 21.8572 60.4509 22.559C59.5077 23.2607 58.3892 23.6131 57.0984 23.6131V23.6101Z" fill="#00FF00"/>
<path id="Vector_5" d="M111.041 2.89202C110.551 2.13864 109.958 1.52499 109.269 1.04198C108.072 0.349351 106.564 0 104.744 0C102.606 0 100.917 0.422259 99.6742 1.26982C98.4317 2.11737 97.549 3.38415 97.02 5.07926C96.8719 5.5562 96.7449 6.07871 96.6391 6.63464C96.5726 7.00221 96.5091 7.37283 96.4577 7.77686C96.4517 7.81332 96.4426 7.89534 96.4426 7.89838L96.4335 7.96521C96.4335 7.96521 96.4245 7.99255 96.4215 8.0047C96.2129 9.07402 95.2727 9.88208 94.1421 9.88816C93.0115 9.88208 92.0744 9.07402 91.8628 8.0047C91.8628 7.99255 91.8537 7.97736 91.8507 7.96521L91.8416 7.89838C91.8416 7.89838 91.8326 7.81635 91.8265 7.77686C91.7751 7.37587 91.7116 7.00221 91.6451 6.63464C91.5393 6.07871 91.4124 5.5562 91.2643 5.07926C90.7352 3.38719 89.8495 2.11737 88.6101 1.26982C87.3706 0.422259 85.6838 0 83.5435 0C81.7237 0 80.2152 0.346313 79.0151 1.04198C78.3259 1.52803 77.7334 2.13864 77.2436 2.89202C75.9619 4.86965 75.2878 7.84673 75.2031 11.805C75.2878 15.7603 75.9619 18.7404 77.2436 20.718C77.7334 21.4714 78.3259 22.0851 79.0151 22.5681C80.2122 23.2607 81.7237 23.6101 83.5435 23.6101C85.6808 23.6101 87.3706 23.1878 88.6131 22.3403C89.8555 21.4927 90.7382 20.2259 91.2673 18.5308C91.4154 18.0539 91.5424 17.5314 91.6482 16.9754C91.7147 16.6079 91.7782 16.2372 91.8295 15.8362C91.8356 15.7998 91.8447 15.7178 91.8447 15.7147L91.8537 15.6479C91.8537 15.6479 91.8628 15.6206 91.8658 15.6084C92.0744 14.5391 93.0146 13.731 94.1452 13.7249C95.2758 13.731 96.2129 14.5391 96.4245 15.6084C96.4275 15.6206 96.4336 15.6327 96.4366 15.6479L96.4456 15.7147C96.4456 15.7147 96.4547 15.7968 96.4608 15.8362C96.5121 16.2372 96.5756 16.6079 96.6421 16.9754C96.7479 17.5314 96.8749 18.0539 97.023 18.5308C97.5521 20.2229 98.4378 21.4927 99.6772 22.3403C100.92 23.1878 102.61 23.6101 104.747 23.6101C106.567 23.6101 108.075 23.2607 109.275 22.5681C109.964 22.082 110.557 21.4714 111.047 20.718C112.328 18.7404 113.003 15.7603 113.087 11.805C113.003 7.84977 112.328 4.86965 111.047 2.89202H111.041Z" fill="#00FF00"/>
</g>
</svg>
